<?xml version="1.0" standalone="no"?>
<!DOCTYPE svg PUBLIC "-//W3C//DTD SVG 20010904//EN"
 "http://www.w3.org/TR/2001/REC-SVG-20010904/DTD/svg10.dtd">
<svg version="1.0" xmlns="http://www.w3.org/2000/svg"
 width="705.000000pt" height="726.000000pt" viewBox="0 0 705.000000 726.000000"
 preserveAspectRatio="xMidYMid meet">
<metadata>
Created by potrace 1.16, written by Peter Selinger 2001-2019
</metadata>
<g transform="translate(0.000000,726.000000) scale(0.100000,-0.100000)"
fill="#000000" stroke="none">
<path d="M6305 6925 c-5 -1 -55 -13 -110 -25 -297 -65 -558 -193 -835 -409
-198 -154 -495 -472 -657 -700 -233 -328 -376 -569 -555 -931 -67 -135 -97
-201 -196 -420 -38 -85 -191 -477 -213 -546 -12 -38 -55 -165 -95 -283 -41
-117 -74 -217 -74 -223 0 -19 262 32 322 63 47 24 53 35 37 65 -11 22 -10 31
14 80 31 63 30 63 128 13 57 -28 119 -88 119 -114 0 -52 -129 -130 -283 -170
-272 -71 -665 -55 -881 35 -174 73 -208 141 -109 216 100 77 328 132 572 139
73 2 137 7 141 12 3 4 12 28 19 52 7 23 15 49 18 57 4 12 -22 14 -152 14 -468
0 -804 -151 -805 -361 0 -19 -9 -30 -32 -43 -18 -9 -235 -93 -483 -186 -258
-97 -455 -176 -462 -186 -10 -14 -13 -214 -13 -975 0 -896 1 -958 17 -978 12
-14 292 -126 858 -343 755 -289 847 -321 911 -326 l72 -5 803 303 c442 166
823 310 846 320 78 34 73 -35 73 1013 l0 934 -22 33 c-21 29 -61 47 -476 205
-249 95 -460 179 -467 185 -8 7 -15 29 -15 49 0 93 -88 198 -216 257 -41 19
-74 41 -74 48 0 12 36 92 136 303 18 40 42 77 53 83 13 6 132 10 324 10 286 0
309 1 360 21 65 25 146 94 221 188 88 110 177 262 154 261 -2 0 -30 -9 -64
-19 -55 -18 -76 -19 -239 -10 -285 14 -283 21 33 99 218 55 358 104 394 139
13 13 208 420 208 435 0 2 20 47 45 99 25 53 45 98 45 100 0 3 20 47 44 98 24
52 54 117 66 144 12 28 71 147 130 265 194 388 358 655 516 837 30 33 54 66
54 72 0 10 -176 15 -205 6z m-3595 -3743 c0 -135 14 -203 54 -255 62 -81 213
-153 411 -196 109 -23 141 -25 345 -26 246 0 323 10 495 65 159 51 277 140
303 227 7 22 12 95 12 162 0 75 4 121 10 121 15 0 664 -250 673 -259 9 -9 8
-10 -463 -186 -173 -65 -364 -137 -425 -160 -60 -24 -139 -52 -175 -63 -36
-11 -119 -42 -185 -70 -66 -27 -148 -60 -183 -72 l-62 -23 -755 289 c-415 159
-754 293 -752 297 2 8 669 265 690 266 4 1 7 -52 7 -117z m1480 -27 c0 -108
-1 -115 -26 -145 -37 -43 -150 -97 -263 -126 -101 -26 -335 -52 -364 -41 -15
6 -17 24 -17 142 l0 135 26 10 c14 6 49 10 77 10 131 0 418 66 517 119 19 11
38 17 42 14 5 -2 8 -55 8 -118z m970 -1104 c0 -735 -2 -860 -14 -864 -300
-115 -1518 -571 -1534 -575 l-22 -4 2 857 3 857 775 293 c426 161 778 294 783
294 4 1 7 -386 7 -858z"/>
<path d="M3350 3599 c-87 -15 -215 -57 -234 -77 -21 -24 -12 -48 23 -66 75
-39 370 -92 390 -70 10 10 61 185 61 208 0 13 -15 16 -92 15 -51 -1 -118 -5
-148 -10z"/>
</g>
</svg>
