<svg width="512" height="512" viewBox="0 0 512 512" fill="none" xmlns="http://www.w3.org/2000/svg">
<path d="M33 149.284L256 237.31V466.179L33 381.087V149.284Z" fill="black"/>
<path d="M261.317 240.928V458.364L473.683 374.535V157.099L261.317 240.928Z" fill="#FEFEFE" stroke="black" stroke-width="10.6334"/>
<path d="M47.1204 149.142L258.907 60.5769L465.043 149.078L256 231.594L47.1204 149.142Z" fill="white" stroke="black" stroke-width="10.6334"/>
<path d="M252.088 111.846L352.829 95.8816V154.566L252.088 166.302V111.846Z" fill="white"/>
<rect x="172.166" y="106.401" width="87.188" height="59.9012" fill="black"/>
<path d="M256 180.974C316.222 180.974 361.632 165.549 361.632 148.991V83.6404L361.01 81.2105C361.397 80.1519 358.697 82.3079 358.697 81.2105C358.697 64.6528 316.222 48.9342 256 48.9342C199.769 48.9342 155.615 75.9289 153.303 78.2763L150.368 84.8299V148.991C150.368 165.549 195.778 180.974 256 180.974ZM256 166.303C205.848 166.303 173.842 155.575 173.842 148.991V96.6644C192.891 103.074 222.092 107.032 256 107.032C289.908 107.032 330.846 102.292 349.895 95.8816V145.763C349.895 152.348 306.152 166.303 256 166.303ZM256 61.8447C306.152 61.8447 338.158 71.3985 338.158 77.9829C338.158 84.5673 306.152 94.121 256 94.121C205.848 94.121 173.842 84.5673 173.842 77.9829C173.842 71.3985 205.848 61.8447 256 61.8447Z" fill="black"/>
<path d="M356.315 84.1447C356.315 87.2637 354.58 90.9345 349.878 94.9489C345.196 98.9462 338.109 102.786 328.887 106.117C310.488 112.76 284.72 116.973 256 116.973C227.28 116.973 201.512 112.76 183.113 106.117C173.891 102.786 166.804 98.9462 162.122 94.9489C157.42 90.9345 155.685 87.2637 155.685 84.1447C155.685 81.0258 157.42 77.355 162.122 73.3406C166.804 69.3433 173.891 65.503 183.113 62.173C201.512 55.529 227.28 51.3167 256 51.3167C284.72 51.3167 310.488 55.529 328.887 62.173C338.109 65.503 345.196 69.3433 349.878 73.3406C354.58 77.355 356.315 81.0258 356.315 84.1447Z" fill="white" stroke="black" stroke-width="10.6334"/>
<path d="M267.571 398.908L467.429 335.795V154.344L267.571 234.288V398.908Z" fill="#FEFEFE"/>
</svg>
